<svg xmlns="http://www.w3.org/2000/svg" width="600" height="600"><g><title>Layer 1</title><defs><linearGradient id="grad1" x1="0%" x2="100%" y1="0%" y2="100%"><stop offset="0%" style="stop-color:#5b8805;stop-opacity:1"/><stop offset="100%" style="stop-color:#5b8805;stop-opacity:0"/></linearGradient></defs><ellipse id="svg_1" cx="300" cy="300" fill="#79b506" stroke="#000" stroke-width="0" rx="300" ry="300"/><path d="M191 479.5 L 300 479.5 L 300 600" style="fill:#5b8805;stroke:purple;stroke-width:0"/><path d="M426.5 145 L 600 300 L 420 300" style="fill:#5b8805;stroke:purple;stroke-width:0"/><path fill="#5b8805" d="M300 600 A 300 300, 0, 0, 0, 600 300 L 300 300 Z"/><path d="M 300 300 L 300 470 L 400 470 L 410 300" style="fill:#79b506;stroke:purple;stroke-width:0"/><line x1="180" x2="420" y1="159.25" y2="159.25" stroke-linecap="round" style="stroke:#fff;stroke-width:30"/><rect width="100" height="30" x="250" y="129.25" rx="20" ry="20" style="fill:transparent;stroke:#fff;stroke-width:10"/><line x1="189" x2="200" y1="198.75" y2="466.75" stroke-linecap="round" style="stroke:#fff;stroke-width:25"/><line id="bottom" x1="411" x2="400" y1="198.75" y2="466.75" stroke-linecap="round" style="stroke:#fff;stroke-width:25"/><line x1="189" x2="411" y1="198.75" y2="198.75" stroke-linecap="square" style="stroke:#fff;stroke-width:25"/><line x1="203" x2="397" y1="470.75" y2="470.75" stroke-linecap="round" style="stroke:#fff;stroke-width:30"/><line x1="260" x2="265" y1="198.75" y2="470.75" stroke-linecap="round" style="stroke:#fff;stroke-width:25"/><line x1="340" x2="335" y1="198.75" y2="470.75" stroke-linecap="round" style="stroke:#fff;stroke-width:25"/></g></svg>