<svg xmlns="http://www.w3.org/2000/svg" width="800" height="800" fill="#fff" class="cf-icon-svg" viewBox="-1 0 19 19"><g id="SVGRepo_iconCarrier"><path d="M16.417 9.583A7.917 7.917 0 1 1 8.5 1.666a7.917 7.917 0 0 1 7.917 7.917zm-2.792-1.198a.396.396 0 0 0-.149-.54L8.661 5.104a.396.396 0 0 0-.393 0l-2.31 1.324v-.895a.318.318 0 0 0-.317-.317h-.968a.318.318 0 0 0-.317.317v1.813l-.872.5a.396.396 0 1 0 .393.686l4.589-2.629 4.619 2.63a.395.395 0 0 0 .54-.148zm-1.02.786L8.467 6.815l-4.11 2.356v4.465a.318.318 0 0 0 .316.317h7.615a.318.318 0 0 0 .317-.317zm-6.647.607h1.647v1.668H5.958zm5.045 1.668H9.356V9.778h1.647z"/></g></svg>