<svg xmlns="http://www.w3.org/2000/svg" width="800" height="800" fill="#fff" class="cf-icon-svg" viewBox="-1 0 19 19"><g id="SVGRepo_iconCarrier"><path d="M16.417 9.579A7.917 7.917 0 1 1 8.5 1.662a7.917 7.917 0 0 1 7.917 7.917zm-3.587-4.05a.318.318 0 0 0-.317-.317H4.449a.317.317 0 0 0-.317.317v6.86a.866.866 0 0 0 .226.538l.816.8a.895.895 0 0 0 .543.222h6.796a.318.318 0 0 0 .317-.317zm-1.598 3.066a.318.318 0 0 1-.316.317h-4.87a.317.317 0 0 1-.317-.317V6.22a.317.317 0 0 1 .317-.317h4.87a.318.318 0 0 1 .316.317zm-.36 1.888v2.543a.318.318 0 0 1-.317.317H6.4a.318.318 0 0 1-.316-.317v-2.543a.317.317 0 0 1 .316-.316h4.155a.317.317 0 0 1 .316.316zm-3.15.486h-.876v1.591h.876z"/></g></svg>