<?xml version="1.0" encoding="UTF-8" standalone="no"?>
<!DOCTYPE svg PUBLIC "-//W3C//DTD SVG 1.1//EN" "http://www.w3.org/Graphics/SVG/1.1/DTD/svg11.dtd">
<svg width="467.9" height="171.201" viewBox="0 0 467.9 171.201" version="1.1" xmlns="http://www.w3.org/2000/svg" xmlns:xlink="http://www.w3.org/1999/xlink" xml:space="preserve" xmlns:serif="http://www.serif.com/" style="fill-rule:evenodd;clip-rule:evenodd;stroke-linejoin:round;stroke-miterlimit:2;">
   <path d="M 2.063 69.262 A 6.418 6.418 0 0 0 6.7 71.2 A 8.605 8.605 0 0 0 7.323 71.178 A 6.461 6.461 0 0 0 11.5 69.35 Q 13.4 67.5 13.4 64.5 A 6.225 6.225 0 0 0 12.822 61.829 A 6.955 6.955 0 0 0 11.35 59.8 A 8.478 8.478 0 0 0 10.829 59.331 A 6.325 6.325 0 0 0 6.7 57.8 A 8.813 8.813 0 0 0 4.848 57.985 A 5.979 5.979 0 0 0 1.8 59.6 A 5.927 5.927 0 0 0 0.233 62.44 A 8.624 8.624 0 0 0 0 64.5 Q 0 67.2 2 69.2 A 8.317 8.317 0 0 0 2.063 69.262 Z" id="0" vector-effect="non-scaling-stroke"/><path d="M 39.7 70 L 30.7 70 L 30.7 0 L 43.3 0 L 74.2 58.2 L 74.2 0 L 83.2 0 L 83.2 70 L 70.8 70 L 39.7 12.2 L 39.7 70 Z" id="1" vector-effect="non-scaling-stroke"/><path d="M 143.2 70 L 101.2 70 L 101.2 0 L 143.2 0 L 143.2 8.2 L 110.7 8.2 L 110.7 29.5 L 138.7 29.5 L 138.7 37.5 L 110.7 37.5 L 110.7 61.8 L 143.2 61.8 L 143.2 70 Z" id="2" vector-effect="non-scaling-stroke"/><path d="M 179.7 70 L 170.2 70 L 170.2 8.4 L 148.7 8.4 L 148.7 0 L 201.2 0 L 201.2 8.4 L 179.7 8.4 L 179.7 70 Z" id="3" vector-effect="non-scaling-stroke"/><path d="M 250.2 70 L 241.2 70 L 241.2 0 L 254.5 0 L 273.9 44.3 L 293 0 L 306.6 0 L 306.6 70 L 297.1 70 L 297.1 12.1 L 278.4 54.2 L 269 54.2 L 250.2 12.1 L 250.2 70 Z" id="5" vector-effect="non-scaling-stroke"/><path d="M 381.4 67.5 L 372.7 71 L 364.9 51 L 332.5 51 L 324.7 70.8 L 316.6 67.5 L 344 0 L 354.4 0 L 381.4 67.5 Z M 348.7 9.4 L 335.5 43 L 361.8 43 L 348.7 9.4 Z" id="6" vector-effect="non-scaling-stroke"/><path d="M 389.9 43.4 L 389.9 0 L 399.4 0 L 399.4 41.9 A 39.482 39.482 0 0 0 399.801 47.711 Q 400.682 53.619 403.5 57.4 A 13.242 13.242 0 0 0 411.957 62.556 A 20.418 20.418 0 0 0 415.8 62.9 A 21.386 21.386 0 0 0 420.804 62.351 A 13.455 13.455 0 0 0 428.5 57.55 A 17.382 17.382 0 0 0 431.297 52.155 Q 432.086 49.736 432.432 46.794 A 42.042 42.042 0 0 0 432.7 41.9 L 432.7 0 L 441.9 0 L 441.9 43 A 39.957 39.957 0 0 1 441.278 50.231 A 28.663 28.663 0 0 1 438.65 58.15 Q 435.4 64.5 429.55 67.85 A 25.023 25.023 0 0 1 420.989 70.804 A 32.816 32.816 0 0 1 415.8 71.2 A 32.706 32.706 0 0 1 407.795 70.275 A 22.492 22.492 0 0 1 396.8 64 Q 390.689 57.623 389.99 46.381 A 48.096 48.096 0 0 1 389.9 43.4 Z" id="7" vector-effect="non-scaling-stroke"/><path d="M 467.9 70 L 458.4 70 L 458.4 0 L 467.9 0 L 467.9 70 Z" id="8" vector-effect="non-scaling-stroke"/>
   
   
   
   
 <path d="M 0 170.601 L 0 101.001 A 100.907 100.907 0 0 1 1.856 100.807 Q 4.753 100.53 8.576 100.308 A 270.552 270.552 0 0 1 8.7 100.301 A 168.416 168.416 0 0 1 13.537 100.096 Q 16.008 100.024 18.745 100.007 A 285.352 285.352 0 0 1 20.6 100.001 Q 29 100.001 34.859 102.089 A 22.604 22.604 0 0 1 40.3 104.851 A 16.711 16.711 0 0 1 44.863 109.508 Q 47.054 112.941 47.191 117.401 A 19.526 19.526 0 0 1 47.2 118.001 A 17.052 17.052 0 0 1 46.573 122.72 A 13.798 13.798 0 0 1 44.25 127.351 Q 41.3 131.201 35.7 133.701 A 30.217 30.217 0 0 1 40.336 135.761 Q 43.813 137.694 46 140.351 Q 49.5 144.601 49.5 150.801 Q 49.5 160.115 42.29 165.729 A 22.979 22.979 0 0 1 42 165.951 A 24.681 24.681 0 0 1 34.623 169.661 Q 28.579 171.601 20.2 171.601 A 221.836 221.836 0 0 1 12.12 171.459 A 187.566 187.566 0 0 1 8.65 171.301 A 227.449 227.449 0 0 1 6.066 171.144 Q 3.259 170.958 1.195 170.738 A 65.535 65.535 0 0 1 0 170.601 Z M 20.9 138.401 L 9.5 138.401 L 9.5 163.101 Q 14.8 163.701 20.9 163.701 Q 29.8 163.701 34.8 160.501 Q 39.8 157.301 39.8 151.201 A 11.728 11.728 0 0 0 38.928 146.601 Q 37.826 143.988 35.333 142.113 A 14.027 14.027 0 0 0 34.9 141.801 A 16.7 16.7 0 0 0 30.226 139.599 Q 26.303 138.401 20.9 138.401 Z M 9.5 108.201 L 9.5 131.001 L 20.5 131.001 Q 28.4 131.001 33.05 127.701 Q 37.7 124.401 37.7 119.201 A 10.798 10.798 0 0 0 37.026 115.301 Q 35.939 112.471 33.1 110.651 A 16.643 16.643 0 0 0 28.614 108.687 Q 25.125 107.701 20.5 107.701 Q 17.2 107.701 14.5 107.851 Q 11.8 108.001 9.5 108.201 Z" id="0" vector-effect="non-scaling-stroke"/><path d="M 119.8 168.301 L 111.1 171.801 L 103.3 151.801 L 70.9 151.801 L 63.1 171.601 L 55 168.301 L 82.4 100.801 L 92.8 100.801 L 119.8 168.301 Z M 87.1 110.201 L 73.9 143.801 L 100.2 143.801 L 87.1 110.201 Z" id="1" vector-effect="non-scaling-stroke"/><path d="M 138.8 170.801 L 129.8 170.801 L 129.8 100.801 L 142.4 100.801 L 173.3 159.001 L 173.3 100.801 L 182.3 100.801 L 182.3 170.801 L 169.9 170.801 L 138.8 113.001 L 138.8 170.801 Z" id="2" vector-effect="non-scaling-stroke"/><path d="M 250.4 165.201 L 243.8 172.001 L 209.8 138.601 L 209.8 170.801 L 200.3 170.801 L 200.3 100.801 L 209.8 100.801 L 209.8 132.701 L 239.6 100.501 L 246 106.401 L 218.7 134.801 L 250.4 165.201 Z" id="3" vector-effect="non-scaling-stroke"/>
   
   
   
</svg>