<svg xmlns="http://www.w3.org/2000/svg" width="456" height="166.847" viewBox="0 0 456 166.847" style="fill-rule:evenodd;clip-rule:evenodd;stroke-linejoin:round;stroke-miterlimit:2"><path d="M2.011 67.5a6.255 6.255 0 0 0 4.519 1.889 8.386 8.386 0 0 0 .607-.021 6.297 6.297 0 0 0 4.071-1.782q1.852-1.803 1.852-4.727a6.067 6.067 0 0 0-.563-2.603 6.778 6.778 0 0 0-1.436-1.977 8.262 8.262 0 0 0-.508-.457A6.164 6.164 0 0 0 6.53 56.33a8.589 8.589 0 0 0-1.805.18 5.827 5.827 0 0 0-2.971 1.574 5.776 5.776 0 0 0-1.527 2.768A8.405 8.405 0 0 0 0 62.86q0 2.631 1.949 4.58a8.105 8.105 0 0 0 .061.06Zm36.679.72h-8.771V0h12.28l30.114 56.72V0h8.771v68.22H68.999L38.69 11.89v56.33Zm100.868 0H98.626V0h40.932v7.991h-31.673v20.758h27.288v7.797h-27.288v23.682h31.673v7.992Zm35.572 0h-9.258V8.186h-20.953V0h51.165v8.186h-20.953V68.22Zm68.707 0h-8.771V0h12.962l18.907 43.173L285.548 0h13.254v68.22h-9.258V11.792L271.32 52.821h-9.161l-18.322-41.029V68.22ZM371.7 65.784l-8.479 3.411-7.602-19.491h-31.576L316.441 69l-7.894-3.216L335.251 0h10.135l26.313 65.783ZM339.832 9.161l-12.865 32.745h25.631L339.832 9.161Zm40.152 33.135V0h9.258v40.834a38.478 38.478 0 0 0 .391 5.663q.859 5.758 3.605 9.443a12.905 12.905 0 0 0 8.242 5.025 19.899 19.899 0 0 0 3.745.335 20.842 20.842 0 0 0 4.877-.535 13.113 13.113 0 0 0 7.5-4.679 16.94 16.94 0 0 0 2.726-5.258q.769-2.357 1.106-5.225a40.973 40.973 0 0 0 .261-4.77V0h8.966v41.906a38.941 38.941 0 0 1-.606 7.047 27.934 27.934 0 0 1-2.561 7.718q-3.167 6.189-8.869 9.453a24.387 24.387 0 0 1-8.343 2.879 31.981 31.981 0 0 1-5.057.386 31.874 31.874 0 0 1-7.801-.901 21.92 21.92 0 0 1-10.716-6.116q-5.956-6.215-6.637-17.171a46.873 46.873 0 0 1-.088-2.905ZM456 68.219h-9.258V0H456v68.22ZM0 166.262v-67.83a98.341 98.341 0 0 1 1.809-.189q2.823-.27 6.549-.486a263.671 263.671 0 0 1 .121-.007 164.133 164.133 0 0 1 4.714-.2q2.408-.07 5.076-.087a278.095 278.095 0 0 1 1.808-.006q8.186 0 13.896 2.035a22.029 22.029 0 0 1 5.303 2.692 16.286 16.286 0 0 1 4.447 4.539q2.135 3.346 2.269 7.692a19.029 19.029 0 0 1 .009.585 16.618 16.618 0 0 1-.611 4.599 13.447 13.447 0 0 1-2.264 4.513q-2.875 3.752-8.333 6.189a29.448 29.448 0 0 1 4.518 2.008q3.389 1.884 5.52 4.473 3.411 4.142 3.411 10.184 0 9.077-7.027 14.548a22.395 22.395 0 0 1-.283.216 24.053 24.053 0 0 1-7.189 3.616q-5.89 1.891-14.056 1.891a216.194 216.194 0 0 1-7.875-.138 182.796 182.796 0 0 1-3.382-.154 221.664 221.664 0 0 1-2.518-.153q-2.736-.181-4.747-.396A63.868 63.868 0 0 1 0 166.262Zm20.368-31.381H9.258v24.072q5.165.585 11.11.585 8.674 0 13.546-3.119t4.873-9.063a11.43 11.43 0 0 0-.85-4.483q-1.074-2.547-3.504-4.374a13.67 13.67 0 0 0-.422-.304 16.275 16.275 0 0 0-4.555-2.146q-3.823-1.168-9.089-1.168Zm-11.11-29.432v22.22h10.72q7.699 0 12.231-3.216t4.532-8.284a10.523 10.523 0 0 0-.657-3.801q-1.059-2.758-3.826-4.532a16.22 16.22 0 0 0-4.372-1.914q-3.4-.961-7.908-.961-3.216 0-5.847.146t-4.873.341Zm107.495 58.571-8.479 3.411-7.602-19.491H69.097l-7.602 19.296-7.894-3.216 26.703-65.783h10.135l26.313 65.783Zm-31.868-56.622-12.864 32.745h25.631l-12.767-32.745Zm50.385 59.059h-8.771v-68.22h12.28l30.114 56.72v-56.72h8.771v68.22h-12.085l-30.309-56.33v56.33Zm108.762-5.458-6.432 6.627-33.135-32.551v31.381h-9.258v-68.22h9.258v31.089l29.042-31.381 6.237 5.75-26.606 27.678 30.894 29.627Z" vector-effect="non-scaling-stroke" style="fill:#fff"/></svg>