<?xml version="1.0" encoding="utf-8"?>
<svg version="1.1" viewBox="0 0 64 64" xmlns="http://www.w3.org/2000/svg">
  <defs>
    <linearGradient id="f" x1="28.109" x2="31.291" y1="9.7984" y2="38.807" gradientTransform="matrix(1.7306, 0, 0, 1.3876, -14.168, -2.6001)" gradientUnits="userSpaceOnUse">
      <stop stop-color="#5d7a7a" offset="0"/>
      <stop stop-color="#d2dddd" offset="1"/>
    </linearGradient>
    <linearGradient id="e" x1="8.0455" x2="50.489" y1="14.305" y2="14.305" gradientTransform="matrix(1.4841, 0, 0, 1.4841, -10.985, -5.1953)" gradientUnits="userSpaceOnUse">
      <stop stop-color="#e9eae5" offset="0"/>
      <stop stop-color="#cfd7eb" stop-opacity=".9569" offset="1"/>
    </linearGradient>
    <linearGradient id="d" x1="21.763" x2="21.499" y1="26.49" y2="13.263" gradientUnits="userSpaceOnUse" gradientTransform="matrix(1.4841, 0, 0, 1.5533, -19.555, -8.1615)">
      <stop stop-color="#d6ebf7" offset="0"/>
      <stop stop-color="#d8ecf7" stop-opacity="0" offset="1"/>
    </linearGradient>
    <linearGradient id="c" x1="28.909" x2="29.013" y1="26.49" y2="9.985" gradientUnits="userSpaceOnUse" gradientTransform="matrix(1.4841, 0, 0, 1.5533, -19.555, -8.1615)">
      <stop stop-color="#d8ecf7" offset="0"/>
      <stop stop-color="#d8ecf7" stop-opacity="0" offset="1"/>
    </linearGradient>
    <linearGradient id="b" x1="41.154" x2="41.258" y1="26.607" y2="11.624" gradientUnits="userSpaceOnUse" gradientTransform="matrix(1.4841, 0, 0, 1.5533, -19.555, -8.1615)">
      <stop stop-color="#d8ecf7" offset="0"/>
      <stop stop-color="#d8ecf7" stop-opacity="0" offset="1"/>
    </linearGradient>
    <linearGradient id="a" x1="48.791" x2="48.771" y1="26.49" y2="11.975" gradientUnits="userSpaceOnUse" gradientTransform="matrix(1.4841, 0, 0, 1.5533, -19.555, -8.1615)">
      <stop stop-color="#d8ecf7" offset="0"/>
      <stop stop-color="#d8ecf7" stop-opacity="0" offset="1"/>
    </linearGradient>
    <radialGradient id="gradient-1" cx="0" cy="0" r="1" gradientUnits="userSpaceOnUse" gradientTransform="matrix(26.4058, 0, 0, 26.4058, 194.542068, -256.352539)">
      <stop stop-color="#8065E0"/>
      <stop offset="1" stop-color="#512BD4"/>
    </radialGradient>
    <linearGradient id="gradient-2" x1="214.439" y1="303.482" x2="236.702" y2="409.505" gradientUnits="userSpaceOnUse" gradientTransform="matrix(1, 0, 0, 1, -187.461929, -359.80954)">
      <stop stop-color="#522CD5"/>
      <stop offset="0.44" stop-color="#8A6FE8"/>
    </linearGradient>
    <linearGradient id="gradient-3" x1="231.673" y1="404.144" x2="297.805" y2="522.048" gradientUnits="userSpaceOnUse" gradientTransform="matrix(1, 0, 0, 1, -187.461929, -359.80954)">
      <stop stop-color="#522CD5"/>
      <stop offset="0.44" stop-color="#8A6FE8"/>
    </linearGradient>
    <radialGradient id="gradient-4" cx="0" cy="0" r="1" gradientUnits="userSpaceOnUse" gradientTransform="matrix(45.832124, -0.208781, 0.208781, 45.832124, 93.774104, 110.2094)">
      <stop offset="0.034" stop-color="#522CD5"/>
      <stop offset="0.996" stop-color="#8A6FE8"/>
    </radialGradient>
    <linearGradient id="gradient-5" x1="166.061" y1="303.491" x2="144.763" y2="409.709" gradientUnits="userSpaceOnUse" gradientTransform="matrix(1, 0, 0, 1, -187.461929, -359.80954)">
      <stop stop-color="#522CD5"/>
      <stop offset="0.44" stop-color="#8A6FE8"/>
    </linearGradient>
    <linearGradient id="gradient-6" x1="146.739" y1="407.302" x2="147.246" y2="518.627" gradientUnits="userSpaceOnUse" gradientTransform="matrix(1, 0, 0, 1, -187.461929, -359.80954)">
      <stop stop-color="#522CD5"/>
      <stop offset="0.44" stop-color="#8A6FE8"/>
    </linearGradient>
    <radialGradient id="g" cx="0" cy="0" r="1" gradientUnits="userSpaceOnUse" gradientTransform="matrix(-50.247079, 0.228894, -0.228894, -50.247079, -38.831377, 110.211914)">
      <stop offset="0.034" stop-color="#522CD5"/>
      <stop offset="0.996" stop-color="#8A6FE8"/>
    </radialGradient>
    <radialGradient id="h" cx="0" cy="0" r="1" gradientUnits="userSpaceOnUse" gradientTransform="matrix(-140.933535, 0.642004, -0.642004, -140.933535, 31.756666, -205.880854)">
      <stop offset="0.474" stop-color="#A08BE8"/>
      <stop offset="0.862" stop-color="#8065E0"/>
    </radialGradient>
    <radialGradient id="i" cx="0" cy="0" r="1" gradientUnits="userSpaceOnUse" gradientTransform="matrix(-146.051478, 0.665318, -0.665318, -146.051478, 127.399626, -201.070698)">
      <stop offset="0.093" stop-color="#E1DFDD"/>
      <stop offset="0.657" stop-color="#fff"/>
    </radialGradient>
    <linearGradient id="j" x1="54.185" y1="217.159" x2="54.185" y2="357.022" gradientUnits="userSpaceOnUse" gradientTransform="matrix(1, 0, 0, 1, -187.461929, -359.80954)">
      <stop offset="0.334" stop-color="#9780E6"/>
      <stop offset="0.849" stop-color="#8A6FE8"/>
    </linearGradient>
    <radialGradient id="k" cx="0" cy="0" r="1" gradientUnits="userSpaceOnUse" gradientTransform="matrix(25.99213, -0.118403, 0.118403, 25.99213, -97.022641, -141.522978)">
      <stop stop-color="#8065E0"/>
      <stop offset="1" stop-color="#512BD4"/>
    </radialGradient>
    <radialGradient id="l" cx="0" cy="0" r="1" gradientUnits="userSpaceOnUse" gradientTransform="matrix(26.410601, 0, 0, 26.410601, -161.656929, -14.766541)">
      <stop stop-color="#8065E0"/>
      <stop offset="1" stop-color="#512BD4"/>
    </radialGradient>
    <radialGradient id="m" cx="0" cy="0" r="1" gradientUnits="userSpaceOnUse" gradientTransform="matrix(17.834879, -11.232526, 11.232526, 17.834879, -18.345933, -292.442981)">
      <stop stop-color="#8065E0"/>
      <stop offset="1" stop-color="#512BD4"/>
    </radialGradient>
  </defs>
  <path d="M 9.158 25.188 L 55.325 25.188 L 55.325 50.038 L 9.158 50.038 L 9.158 25.188 Z" stroke-width="1.5809" stroke="#000" stroke-linejoin="round"/>
  <g transform="matrix(1.52273, 0, 0, 1.593733, -20.905813, -9.250492)" stroke="#000" stroke-linejoin="round">
    <path d="m19.813 20.545h3.6364v17.273h-3.6364z"/>
    <path d="m27.449 20.545h3.6364v17.273h-3.6364z"/>
    <path d="m47.085 20.545h3.6364v17.273h-3.6364z"/>
    <path d="m39.449 20.545h3.6364v17.273h-3.6364z"/>
  </g>
  <path d="M 1.445 54.013 L 63.459 54.013 L 63.459 56.66 L 1.445 56.66 L 1.445 54.013 Z" stroke-width=".80003" stroke="#000" stroke-linejoin="round"/>
  <path d="M 0.354 24.609 L 33.038 6.139 L 64.004 24.829 L 0.354 24.609 Z" stroke-width="1.5141px" stroke="#000" stroke-linejoin="round"/>
  <path d="M 4.184 50.798 L 59.891 50.798 L 59.891 53.445 L 4.184 53.445 L 4.184 50.798 Z" stroke-width=".80003" stroke="#000" stroke-linejoin="round"/>
  <rect x="9.746" y="25.403" width="45.905" height="24.401" fill="url(#f)" stroke="#ccd1d1" stroke-linejoin="round" stroke-width="1.5496"/>
  <rect x="27.321" y="34.034" width="11.079" height="15.571" fill="#be8c47" stroke="#937348" stroke-linejoin="round" stroke-width="1.2786"/>
  <rect x="9.667" y="25.388" width="5.579" height="25.193" fill="url(#d)" stroke="#ccd1d1" stroke-linejoin="round"/>
  <rect x="20.818" y="25.388" width="5.76" height="25.193" fill="url(#c)" stroke="#ccd1d1" stroke-linejoin="round"/>
  <rect x="50.324" y="25.206" width="5.397" height="25.375" fill="url(#a)" stroke="#ccd1d1" stroke-linejoin="round"/>
  <rect x="38.991" y="25.388" width="5.397" height="25.193" fill="url(#b)" stroke="#ccd1d1" stroke-linejoin="round"/>
  <rect x="2.229" y="53.498" width="60.44" height="2.58" fill="#dde4e4" stroke="#cad3d3" stroke-linejoin="round" stroke-width=".78418"/>
  <path d="M 1.697 24.486 L 32.684 7.015 L 63.201 25.054 L 1.697 24.486 Z" fill="url(#e)" stroke="#ccd1d1" stroke-linejoin="round" stroke-width="1.4841px"/>
  <rect x="4.898" y="50.364" width="54.294" height="2.58" fill="#dde4e4" stroke="#cad3d3" stroke-linejoin="round" stroke-width=".78418"/>
  <g style="" transform="matrix(0.047349, 0, 0, 0.047349, 18.850716, 46.296158)">
    <path d="M 96.97 -112.242 L 96.542 -137.929 C 128.897 -138.475 152.894 -148.075 167.846 -166.474 C 194.946 -199.814 185.431 -251.627 185.324 -252.151 L 210.551 -256.979 C 211.043 -254.378 222.335 -192.793 187.775 -150.28 C 167.814 -125.717 137.257 -112.916 96.97 -112.242 L 96.97 -112.242 Z" fill="#8A6FE8"/>
    <path d="M 144.492 -250.45 L 174.364 -225.565 C 179.683 -221.134 187.593 -221.851 192.035 -227.171 C 196.466 -232.49 195.749 -240.4 190.429 -244.841 L 160.557 -269.726 C 155.238 -274.156 147.328 -273.44 142.886 -268.12 C 138.455 -262.79 139.172 -254.881 144.492 -250.45 Z M 219.713 -241.748 L 230.458 -265.584 C 233.273 -271.952 230.394 -279.401 224.026 -282.227 C 217.658 -285.042 210.208 -282.163 207.383 -275.794 L 196.369 -251.349 L 219.713 -241.748 L 219.713 -241.748 Z" fill="#8A6FE8"/>
    <path d="M 213.901 -254.635 L 213.772 -290.693 C 213.719 -297.661 208.036 -303.269 201.068 -303.216 C 194.1 -303.162 188.492 -297.479 188.545 -290.511 L 188.556 -263.7 L 213.901 -254.635 L 213.901 -254.635 Z" fill="#8A6FE8"/>
    <path d="M 198.991 -250.739 L 190.675 -285.855 C 189.081 -292.641 182.295 -296.847 175.509 -295.252 C 168.723 -293.658 164.517 -286.872 166.112 -280.086 L 174.578 -244.328 L 198.991 -250.739 L 198.991 -250.739 Z" fill="#8A6FE8"/>
    <path d="M 194.314 -217.549 C 208.897 -217.549 220.719 -229.37 220.719 -243.953 C 220.719 -258.536 208.897 -270.357 194.314 -270.357 C 179.732 -270.357 167.91 -258.536 167.91 -243.953 C 167.91 -229.37 179.732 -217.549 194.314 -217.549 L 194.314 -217.549 Z" fill="url(#gradient-1)"/>
    <path d="M 60.805 47.169 C 61.051 24.917 57.883 -20.249 34.914 -58.074 L 12.46 -44.438 C 33.298 -10.135 34.861 29.905 34.379 47.372 C 34.336 48.817 47.801 50.123 60.805 47.169 L 60.805 47.169 Z" fill="url(#gradient-2)"/>
    <path d="M 34.379 47.126 L 55.175 47.03 L 74.59 158.255 L 32.849 158.448 C 29.67 158.459 27.262 155.901 27.476 152.722 L 34.379 47.126 L 34.379 47.126 Z" fill="#522CD5"/>
    <path d="M 119.104 129.004 C 122.711 131.851 122.647 135.972 122.369 140.317 L 121.502 153.642 C 121.341 156.029 119.265 157.988 116.878 157.999 L 73.37 158.202 C 70.663 158.213 68.618 156.029 68.8 153.332 L 69.089 139.525 C 69.421 134.505 67.73 132.664 63.845 127.934 C 57.187 119.853 37.505 75.81 39.378 47.115 L 60.794 47.019 C 62.229 64.048 84.705 101.872 119.104 129.004 L 119.104 129.004 Z" fill="url(#gradient-3)"/>
    <path d="M 122.358 140.317 C 122.561 137.278 122.615 134.366 121.427 131.905 L 67.173 132.151 C 68.672 134.356 69.303 136.282 69.1 139.504 L 68.811 153.311 C 68.629 156.018 70.684 158.202 73.381 158.18 L 116.878 157.988 C 119.265 157.977 121.341 156.018 121.502 153.632 L 122.358 140.317 L 122.358 140.317 Z" fill="url(#gradient-4)"/>
    <path d="M -53.91 47.661 C -54.359 25.41 -51.598 -19.789 -28.972 -57.817 L -6.389 -44.385 C -26.917 -9.889 -28.116 30.162 -27.473 47.618 C -27.42 49.074 -40.884 50.508 -53.91 47.661 L -53.91 47.661 Z" fill="url(#gradient-5)"/>
    <path d="M -76.664 137.342 C -76.697 134.377 -76.258 131.765 -75.005 127.42 C -55.58 74.322 -53.942 47.554 -53.942 47.554 L -27.463 47.436 C -27.463 47.436 -25.643 73.702 -5.746 126.617 C -4.173 130.385 -3.991 133.831 -3.788 137.021 L -3.67 154.006 C -3.659 156.564 -5.746 158.673 -8.304 158.684 L -9.589 158.694 L -70.681 158.972 L -71.966 158.983 C -74.537 158.994 -76.63 156.92 -76.643 154.349 L -76.664 137.342 L -76.664 137.342 Z" fill="url(#gradient-6)"/>
    <path d="M -76.664 137.342 C -76.664 136.86 -76.654 136.389 -76.632 135.929 C -76.493 134.452 -75.819 132.793 -72.587 132.772 L -7.255 132.472 C -4.901 132.557 -4.119 134.366 -3.873 135.501 C -3.841 136.004 -3.798 136.518 -3.766 137.01 L -3.649 153.996 C -3.641 155.545 -4.408 156.995 -5.693 157.859 C -6.457 158.38 -7.358 158.663 -8.283 158.673 L -9.567 158.684 L -70.66 158.962 L -71.934 158.972 C -74.503 158.98 -76.595 156.908 -76.611 154.338 L -76.664 137.342 L -76.664 137.342 Z" fill="url(#g)"/>
    <path d="M 127.517 -113.462 C 136.7 -149.403 130.546 -178.033 130.546 -178.033 L 138.99 -178.076 L 139.194 -178.236 C 126.8 -244.06 68.864 -293.711 -0.513 -293.39 C -78.666 -293.037 -141.739 -229.386 -141.386 -151.233 C -141.032 -73.079 -77.382 -10.007 0.772 -10.36 C 62.443 -10.638 114.716 -50.336 133.842 -105.467 C 134.41 -107.811 134.335 -112.006 127.517 -113.462 L 127.517 -113.462 Z" fill="url(#h)"/>
    <path d="M 122.775 -80.775 L -121.585 -79.662 C -116.078 -70.414 -109.539 -61.822 -102.095 -54.049 L 103.51 -54.981 C 110.891 -62.818 117.354 -71.472 122.775 -80.775 L 122.775 -80.775 Z" fill="#D8CFF7"/>
    <path d="M 47.6 -47.016 L 93.462 -47.225 L 93.278 -87.789 L 47.415 -87.58 L 47.6 -47.016 Z" fill="#512BD4"/>
    <path d="M 55.539 -62.184 C 55.229 -62.184 54.972 -62.28 54.758 -62.483 C 54.552 -62.673 54.436 -62.941 54.437 -63.222 C 54.437 -63.511 54.544 -63.768 54.758 -63.971 C 54.964 -64.178 55.247 -64.291 55.539 -64.282 C 55.85 -64.282 56.106 -64.175 56.32 -63.971 C 56.756 -63.572 56.762 -62.887 56.331 -62.483 C 56.113 -62.288 55.831 -62.182 55.539 -62.184 Z M 67.73 -62.376 L 65.75 -62.376 L 60.505 -70.607 C 60.373 -70.813 60.263 -71.031 60.174 -71.26 L 60.131 -71.26 C 60.174 -71.024 60.195 -70.511 60.195 -69.719 L 60.206 -62.366 L 58.45 -62.366 L 58.429 -73.582 L 60.537 -73.582 L 65.6 -65.545 C 65.814 -65.213 65.953 -64.977 66.017 -64.86 L 66.049 -64.86 C 65.996 -65.159 65.975 -65.662 65.975 -66.369 L 65.964 -73.593 L 67.708 -73.593 L 67.73 -62.376 L 67.73 -62.376 Z M 76.271 -62.398 L 70.127 -62.387 L 70.106 -73.604 L 76.003 -73.615 L 76.003 -72.031 L 71.925 -72.02 L 71.936 -68.841 L 75.693 -68.852 L 75.693 -67.278 L 71.936 -67.268 L 71.947 -63.95 L 76.271 -63.96 L 76.271 -62.398 L 76.271 -62.398 Z M 84.983 -72.052 L 81.836 -72.041 L 81.858 -62.409 L 80.038 -62.409 L 80.017 -72.041 L 76.881 -72.031 L 76.881 -73.615 L 84.972 -73.636 L 84.983 -72.052 Z" fill="#fff"/>
    <path d="M 127.817 -113.473 C 136.893 -148.974 130.995 -177.327 130.846 -178.012 L -15.978 -177.348 C -15.978 -177.348 -25.236 -178.247 -25.194 -169.792 C -25.151 -161.347 -24.701 -137.469 -24.584 -111.064 C -24.562 -105.638 -20.099 -103.037 -16.599 -103.059 C -16.588 -103.059 124.156 -107.597 127.817 -113.473 L 127.817 -113.473 Z" fill="url(#i)"/>
    <path d="M 40.223 -113.012 C 40.223 -113.012 62.721 -130.983 67.109 -134.311 C 71.497 -137.64 75.35 -137.833 79.407 -134.365 C 83.463 -130.897 106.154 -113.312 106.154 -113.312 L 40.223 -113.012 Z" fill="#A08BE8"/>
    <path d="M 133.286 -103.669 C 133.286 -103.669 137.481 -111.396 127.817 -113.462 C 127.827 -113.505 -16.535 -112.916 -16.535 -112.916 C -19.896 -112.905 -24.23 -114.885 -24.616 -118.139 C -24.605 -115.806 -24.584 -113.441 -24.573 -111.054 C -24.552 -106.13 -20.88 -103.54 -17.584 -103.112 C -17.252 -103.08 -16.92 -103.037 -16.588 -103.037 L -6.72 -103.08 L 133.286 -103.669 L 133.286 -103.669 Z M 18.938 -126.596 C 25.049 -126.715 29.84 -135.143 29.64 -145.42 C 29.439 -155.698 24.323 -163.932 18.212 -163.813 C 12.101 -163.694 7.31 -155.266 7.511 -144.989 C 7.711 -134.711 12.827 -126.477 18.938 -126.596 Z M 118.787 -145.543 C 118.894 -155.821 114.026 -164.205 107.915 -164.269 C 101.804 -164.332 96.763 -156.052 96.656 -145.773 C 96.549 -135.495 101.416 -127.111 107.528 -127.047 C 113.639 -126.984 118.68 -135.265 118.787 -145.543 Z" fill="#512BD4"/>
    <path d="M 18.443 -154.519 C 20.69 -156.788 23.73 -157.794 26.695 -157.548 C 28.45 -154.315 29.552 -150.077 29.649 -145.421 C 29.707 -142.682 29.386 -139.948 28.696 -137.297 C 25.084 -136.251 21.19 -137.243 18.517 -139.888 C 14.45 -143.901 14.418 -150.462 18.443 -154.519 Z M 107.534 -155.525 C 109.702 -157.712 112.729 -158.822 115.797 -158.554 C 117.702 -155.182 118.847 -150.601 118.794 -145.571 C 118.762 -143.002 118.43 -140.551 117.841 -138.325 C 114.331 -137.287 110.381 -138.132 107.599 -140.894 C 103.542 -144.918 103.51 -151.468 107.534 -155.525 L 107.534 -155.525 Z" fill="#8065E0"/>
    <path d="M -175.828 -2.793 C -176.545 -5.094 -193.188 -59.669 -166.142 -100.907 C -150.515 -124.732 -124.154 -138.775 -87.796 -142.66 L -85.013 -116.534 C -113.119 -113.537 -132.994 -103.465 -144.104 -86.608 C -164.364 -55.869 -150.89 -11.077 -150.751 -10.627 L -175.828 -2.793 L -175.828 -2.793 Z" fill="url(#j)"/>
    <path d="M -92.312 -107.008 C -77.96 -107.008 -66.325 -118.643 -66.325 -132.995 C -66.325 -147.347 -77.96 -158.982 -92.312 -158.982 C -106.664 -158.982 -118.299 -147.347 -118.299 -132.995 C -118.299 -118.643 -106.664 -107.008 -92.312 -107.008 Z" fill="url(#k)"/>
    <path d="M -115.452 -25.376 L -153.994 -30.503 C -160.865 -31.413 -167.169 -26.596 -168.09 -19.725 C -169 -12.854 -164.183 -6.55 -157.312 -5.629 L -118.77 -0.502 C -111.899 0.407 -105.595 -4.409 -104.674 -11.28 C -103.764 -18.152 -108.591 -24.466 -115.452 -25.376 Z M -183.727 7.375 L -180.109 33.266 C -179.092 40.158 -172.692 44.921 -165.799 43.915 C -158.906 42.898 -154.144 36.498 -155.149 29.605 L -158.864 3.051 L -183.727 7.375 L -183.727 7.375 Z" fill="#8A6FE8"/>
    <path d="M -171.942 15.178 L -152.613 45.617 C -148.856 51.482 -141.053 53.195 -135.188 49.438 C -129.323 45.681 -127.611 37.879 -131.368 32.013 L -145.667 9.334 L -171.943 15.178 L -171.942 15.178 Z" fill="#8A6FE8"/>
    <path d="M -161.411 3.929 L -135.659 29.209 C -130.693 34.101 -122.709 34.036 -117.818 29.07 C -112.926 24.104 -112.99 16.119 -117.946 11.228 L -144.168 -14.513 L -161.411 3.929 L -161.411 3.929 Z" fill="#8A6FE8"/>
    <path d="M -161.058 22.102 C -146.475 22.102 -134.653 10.281 -134.653 -4.302 C -134.653 -18.885 -146.475 -30.706 -161.058 -30.706 C -175.64 -30.706 -187.462 -18.885 -187.462 -4.302 C -187.462 10.281 -175.64 22.102 -161.058 22.102 Z" fill="url(#l)"/>
    <path d="M -2.732 -296.18 L -29.643 -293.22 L -28.901 -321.269 L -9.574 -323.392 L -2.732 -296.179 L -2.732 -296.18 Z" fill="#8A6FE8"/>
    <path d="M -17.444 -318.163 C -7.007 -320.289 -0.269 -330.473 -2.395 -340.911 C -4.521 -351.349 -14.705 -358.087 -25.143 -355.961 C -35.58 -353.835 -42.318 -343.65 -40.192 -333.212 C -38.066 -322.775 -27.882 -316.037 -17.444 -318.163 L -17.444 -318.163 Z" fill="#D8CFF7"/>
    <path d="M 9.423 -280.425 C 10.64 -280.564 11.486 -281.719 11.222 -282.91 C 8.389 -295.528 -3.539 -304.273 -16.689 -302.817 C -29.84 -301.373 -39.576 -290.237 -39.597 -277.311 C -39.599 -276.087 -38.513 -275.151 -37.294 -275.278 L 9.423 -280.425 Z" fill="url(#m)"/>
  </g>
  <g style="" transform="matrix(0.057205, 0, 0, 0.057205, 30.904221, 16.155441)">
    <path d="M -50.715 -93.308 L 111.785 -93.308 L 111.785 79.192 C 111.785 91.55 104.503 102.746 93.207 107.758 L 30.535 134.31 L -32.137 106.508 C -43.433 101.496 -50.715 90.3 -50.715 77.942 L -50.715 -93.308 Z" fill="#005bbb" stroke="#ffd500" stroke-width="2.5"/>
    <path d="M 36.52 -15.734 C 35.827 3.89 40.699 23.31 50.574 40.283 C 64.286 63.85 58.661 93.906 37.355 110.92 C 34.535 112.66 32.191 115.073 30.535 117.942 C 28.878 115.073 26.534 112.66 23.714 110.92 C 2.408 93.906 -3.216 63.85 10.495 40.283 C 20.371 23.31 25.243 3.89 24.549 -15.734 L 22.949 -60.995 C 22.676 -68.73 25.392 -76.273 30.535 -82.058 C 35.677 -76.273 38.393 -68.73 38.12 -60.995 L 36.52 -15.734 Z M 35.535 99.067 C 49.411 84.578 52.019 62.653 41.93 45.312 C 36.976 36.797 33.146 27.676 30.535 18.176 C 27.924 27.676 24.093 36.797 19.139 45.312 C 9.05 62.653 11.658 84.578 25.535 99.067 L 25.535 67.942 L 35.535 67.942 L 35.535 99.067 Z" style="fill: rgb(255, 213, 0);"/>
    <path id="path-1" d="M 58.314 -19.382 C 60.69 -39.558 72.7 -57.33 90.535 -67.058 L 90.535 77.942 L 30.535 77.942 L 25.535 67.942 C 25.535 57.419 32.829 48.301 43.096 45.991 L 57.73 42.698 C 65.24 41.008 68.105 31.822 62.886 26.163 C 60.455 23.527 56.798 22.394 53.302 23.194 L 58.314 -19.382 Z M 64.313 14.971 C 78.147 21.729 79.478 40.928 66.709 49.529 C 64.649 50.917 62.348 51.909 59.925 52.454 L 45.291 55.747 C 39.587 57.03 35.535 62.096 35.535 67.942 L 80.535 67.942 L 80.535 -46.292 C 73.754 -38.369 69.478 -28.611 68.251 -18.255 L 64.313 14.971 Z M 72.535 27.942 L 82.535 27.942 L 82.535 37.942 L 72.535 37.942 L 72.535 27.942 Z" style="fill: rgb(255, 213, 0);"/>
    <path d="M 3.314 30.267 C 5.69 50.442 17.7 68.214 35.535 77.942 L 35.535 -67.058 L -24.465 -67.058 L -29.465 -57.058 C -29.465 -46.534 -22.171 -37.417 -11.904 -35.107 L 2.73 -31.814 C 10.24 -30.124 13.105 -20.938 7.886 -15.279 C 5.455 -12.642 1.798 -11.51 -1.698 -12.31 L 3.314 30.267 Z M 9.313 -4.087 C 23.147 -10.845 24.478 -30.044 11.709 -38.645 C 9.649 -40.033 7.348 -41.025 4.925 -41.57 L -9.709 -44.863 C -15.413 -46.146 -19.465 -51.212 -19.465 -57.058 L 25.535 -57.058 L 25.535 57.177 C 18.754 49.254 14.478 39.495 13.251 29.139 L 9.313 -4.087 Z M 17.535 -17.058 L 27.535 -17.058 L 27.535 -27.058 L 17.535 -27.058 L 17.535 -17.058 Z" transform="matrix(-1, 0, 0, -1, 6.07, 10.884003)" style="fill: rgb(255, 213, 0);"/>
  </g>
</svg>