<svg xmlns="http://www.w3.org/2000/svg" width="456" height="456" fill="#fc0" viewBox="0 0 456 456"><g transform="matrix(5.783426, 0, 0, 5.783426, 0, 0)"><circle cx="39.423" cy="39.423" r="39.423"/><circle cx="39.423" cy="39.423" r="37.151" fill="#d9a100"/><g><path d="M 44.9856 5.74225 C 40.1169 10.6833 38.012 15.1039 31.0732 16.5395 L 31.0732 17.6356 L 33.8601 17.6356 L 33.8601 49.9086 C 33.8601 51.7331 32.8407 52.4872 31.1125 52.4872 L 28.7488 52.4872 L 28.7488 53.8571 L 50.4643 53.8571 L 50.4643 52.4872 L 47.7332 52.4872 C 46.0043 52.4872 44.9856 51.7327 44.9856 49.9065 L 44.9856 17.6356 Z"/><g><path d="M 16.1005 57.5453 L 16.1005 58.5861 L 16.1005 65.9412 L 17.7609 65.9412 L 17.7609 58.5861 L 19.6202 58.5861 C 19.6202 58.5861 19.6861 59.7507 20.0236 60.118 C 20.2845 60.4019 21.1281 60.4454 21.1281 60.4454 L 21.1281 58.5861 L 21.1281 57.5453 L 17.7609 57.5453 Z"/><path d="M 23.3032 57.5453 L 23.3032 58.5861 L 23.3032 65.9412 L 24.9635 65.9412 L 24.9635 63.6204 L 28.8651 60.8888 L 28.8651 58.0843 C 28.8651 57.6937 28.7464 57.5453 27.9649 57.5453 L 24.9635 57.5453 Z M 24.9635 58.5861 L 27.0859 58.5861 C 27.2523 58.5861 27.6972 58.6394 27.6972 59.0537 L 27.6972 60.88 L 25.3284 62.5388 C 25.157 62.6588 24.9635 62.6191 24.9635 62.4391 Z"/><path d="M 31.3249 57.5453 L 31.3249 65.9412 L 32.9853 65.9412 L 32.9853 62.1259 L 35.4404 60.4066 L 35.4404 65.9412 L 37.1013 65.9412 L 37.1013 57.5453 L 35.4404 57.5453 L 35.4404 59.5803 L 32.9853 61.2996 L 32.9853 57.5453 Z"/><path d="M 40.1647 57.5453 L 40.1647 58.5861 L 40.1647 60.8526 L 40.1647 61.5295 L 40.1647 64.9004 L 40.1647 65.9412 L 41.825 65.9412 L 46.648 65.9412 C 46.2284 63.9896 45.4917 62.5613 44.7949 61.3635 C 45.9616 60.5388 46.7783 58.6786 46.4496 57.5453 Z M 41.825 58.5861 L 44.3582 58.5861 C 44.5454 58.5861 44.6516 58.6402 44.6179 58.8263 C 44.4962 59.4996 44.2907 60.1772 43.8864 60.8526 L 41.825 60.8526 Z M 41.825 61.5295 L 43.4776 61.5295 C 44.0663 62.5016 44.5534 63.482 44.8489 64.476 C 44.9664 64.8715 44.8579 64.9004 44.5814 64.9004 L 41.825 64.9004 Z"/><path d="M 57.6923 57.5453 C 57.6301 59.5648 58.7128 61.0139 59.2477 61.2753 C 57.5812 62.8259 57.3068 64.2872 57.3068 65.197 L 57.3068 67.169 L 58.9671 67.169 L 58.9671 65.197 C 58.9671 62.2971 61.8202 61.39 61.8202 62.4297 L 61.8202 65.9412 L 63.4806 65.9412 L 63.4806 57.5453 Z M 59.4451 58.5861 L 61.8202 58.5861 L 61.8202 60.7136 C 59.7626 60.9159 59.6947 60.4155 59.4451 58.5861 Z"/><path d="M 49.0044 57.5453 L 49.0044 65.9412 L 50.6648 65.9412 L 50.6648 61.1657 L 53.1205 61.1657 L 53.1205 65.9412 L 54.7808 65.9412 L 54.7808 57.5453 L 53.1205 57.5453 L 53.1205 60.4888 L 50.6648 60.4888 L 50.6648 57.5453 Z"/></g><g><path d="M 7.38832 52.2047 C 7.08713 52.0927 7.17806 51.477 7.91155 51.6664 C 9.54154 52.0874 16.2456 54.1505 17.9377 50.2395 C 18.3148 49.3679 17.919 49.1819 17.5197 49.16 C 16.9825 49.1306 15.9328 49.6602 15.6672 48.4949 C 15.4533 47.5563 17.6005 46.0892 18.6701 48.1982 C 18.9997 48.848 18.7651 50.0059 18.6213 51.504 C 18.5957 51.7709 18.719 51.702 18.9733 51.5704 C 19.9321 51.0741 22.1918 48.1741 21.1107 45.0577 C 21.0654 44.927 21.189 44.9081 21.2479 44.9223 C 21.8444 45.065 22.2045 45.3596 22.8043 46.1995 C 22.8735 46.2964 23.2003 46.4271 23.2545 46.313 C 25.191 42.2403 17.0581 40.2771 23.2279 35.2982 C 22.8347 37.8157 25.0945 36.3421 25.446 43.562 C 25.4624 43.8981 25.8389 44.2397 26.0391 43.9208 C 31.8107 34.7291 17.7458 23.0466 13.6604 32.2508 C 12.9746 33.7959 10.2887 29.6781 17.1803 28.1167 C 17.7405 27.9898 16.7267 26.9456 15.4794 26.1559 C 11.0934 26.8538 12.7569 31.1375 10.1405 28.7545 C 8.05037 31.3982 6.57695 30.6572 5.20674 30.4212 C 7.72032 28.7244 5.31834 25.03 14.6062 25.6484 C 14.7843 25.6603 14.9134 25.554 14.8231 25.4262 C 13.9197 24.1479 13.2057 23.2532 12.491 21.2375 C 11.2532 20.5739 9.32831 20.1393 9.84009 21.2158 C 10.3347 22.2563 8.83167 23.0537 8.39237 22.1872 C 6.73392 18.9159 10.9509 19.1442 12.4734 20.4164 C 12.6429 18.069 12.1917 12.9501 18.3851 11.4149 C 23.5312 6.12987 26.1975 9.02527 29.1102 10.7298 C 27.8612 11.1258 27.1572 11.0484 25.6113 10.433 C 25.035 10.2035 24.8992 10.5987 24.8876 11.0403 C 24.8715 11.6536 24.0823 11.9444 23.7288 11.2232 C 22.4948 8.70585 20.2575 10.8957 19.7687 11.2332 C 19.5552 11.3807 19.5878 11.6439 19.8067 11.7033 C 23.5163 12.7103 23.141 13.8618 24.3808 15.0012 L 23.1512 15.0011 C 18.0166 8.80775 12.1588 15.7216 14.0623 22.1818 C 14.0994 22.3079 14.3978 22.2368 14.4501 22.1259 C 16.1605 18.4968 19.37 20.9308 19.4799 22.1366 C 19.5595 23.0101 17.507 24.0253 17.7258 21.468 C 17.8214 20.351 14.253 22.2924 15.1133 23.5694 C 18.1743 28.1131 22.3051 27.9204 25.047 31.2352 C 25.3112 31.5547 25.8658 31.2422 25.7781 30.5549 C 25.6071 29.2148 25.1799 25.842 29.3934 23.0275 C 31.2261 24.4532 30.2603 26.819 28.8255 28.7116 C 28.7051 28.8705 28.8019 29.2843 28.971 29.2156 C 29.9543 28.8165 30.3523 30.1456 29.8189 31.6605 C 30.6619 31.9401 30.9682 33.1586 30.432 33.078 C 25.8229 32.3849 31.0564 38.6148 27.08 45.1745 C 26.9724 45.3519 27.265 45.6117 27.4199 45.5687 C 30.1925 44.8 30.9694 46.8562 30.6442 47.7082 C 30.1897 48.8994 28.9653 48.5108 28.8435 47.7854 C 28.5763 46.1941 27.4154 45.8231 26.633 46.5933 C 22.0119 51.3813 18.5942 56.37 7.38832 52.2049 Z"/><g><path d="M 15.1251 43.9635 L 12.448 38.8685 L 17.8022 38.8685 Z"/><path d="M 12.448 49.0585 L 9.77084 43.9634 L 15.1251 43.9634 Z"/><path d="M 9.77085 43.9635 L 7.09373 38.8685 L 12.448 38.8685 Z"/><path d="M 7.09373 38.8685 L 4.41661 33.7735 L 9.77084 33.7735 Z"/><path d="M 17.8022 38.8685 L 15.1251 33.7735 L 20.4793 33.7735 Z"/><path d="M 12.448 38.8685 L 9.77084 33.7735 L 15.1251 33.7735 Z"/></g><g><path d="M 25.5392 22.7275 L 23.8718 19.5542 L 27.2066 19.5542 Z"/><path d="M 23.8718 25.9008 L 22.2044 22.7275 L 25.5392 22.7275 Z"/><path d="M 22.2044 22.7275 L 20.537 19.5542 L 23.8718 19.5542 Z"/><path d="M 20.537 19.5541 L 18.8696 16.3808 L 22.2044 16.3808 Z"/><path d="M 27.2066 19.5541 L 25.5392 16.3808 L 28.874 16.3808 Z"/><path d="M 23.8718 19.5541 L 22.2044 16.3808 L 25.5392 16.3808 Z"/></g></g><g><path d="M 71.4575 52.2047 C 71.7587 52.0927 71.6678 51.477 70.9343 51.6664 C 69.3043 52.0874 62.6002 54.1505 60.9082 50.2395 C 60.5311 49.3679 60.9269 49.1819 61.3262 49.16 C 61.8633 49.1306 62.9131 49.6602 63.1787 48.4949 C 63.3926 47.5563 61.2454 46.0892 60.1757 48.1982 C 59.8461 48.848 60.0808 50.0059 60.2245 51.504 C 60.2501 51.7709 60.1269 51.702 59.8726 51.5704 C 58.9138 51.0741 56.654 48.1741 57.7352 45.0577 C 57.7805 44.927 57.6569 44.9081 57.5979 44.9223 C 57.0015 45.065 56.6414 45.3596 56.0416 46.1995 C 55.9724 46.2964 55.6456 46.4271 55.5913 46.313 C 53.6549 42.2403 61.7878 40.2771 55.6179 35.2982 C 56.0112 37.8157 53.7514 36.3421 53.3999 43.562 C 53.3835 43.8981 53.007 44.2397 52.8067 43.9208 C 47.0352 34.7291 61.1 23.0466 65.1855 32.2508 C 65.8713 33.7959 68.5572 29.6781 61.6656 28.1167 C 61.1053 27.9898 62.1192 26.9456 63.3664 26.1559 C 67.7524 26.8538 66.089 31.1375 68.7054 28.7545 C 70.7955 31.3982 72.2689 30.6572 73.6391 30.4212 C 71.1255 28.7244 73.5275 25.03 64.2396 25.6484 C 64.0615 25.6603 63.9324 25.554 64.0227 25.4262 C 64.9262 24.1479 65.6402 23.2532 66.3548 21.2375 C 67.5926 20.5739 69.5176 20.1393 69.0058 21.2158 C 68.5111 22.2563 70.0142 23.0537 70.4535 22.1872 C 72.1119 18.9159 67.895 19.1442 66.3725 20.4164 C 66.2029 18.069 66.6542 12.9501 60.4608 11.4149 C 55.3147 6.12987 52.6484 9.02527 49.7357 10.7298 C 50.9847 11.1258 51.6886 11.0484 53.2346 10.433 C 53.8109 10.2035 53.9466 10.5987 53.9582 11.0403 C 53.9743 11.6536 54.7636 11.9444 55.1171 11.2232 C 56.3511 8.70585 58.5884 10.8957 59.0772 11.2332 C 59.2907 11.3807 59.2581 11.6439 59.0392 11.7033 C 55.3295 12.7103 55.7048 13.8618 54.4651 15.0012 L 55.6947 15.0011 C 60.8293 8.80775 66.6871 15.7216 64.7836 22.1818 C 64.7464 22.3079 64.4481 22.2368 64.3958 22.1259 C 62.6854 18.4968 59.4759 20.9308 59.366 22.1366 C 59.2864 23.0101 61.3388 24.0253 61.1201 21.468 C 61.0245 20.351 64.5929 22.2924 63.7326 23.5694 C 60.6715 28.1131 56.5408 27.9204 53.7989 31.2352 C 53.5346 31.5547 52.98 31.2422 53.0678 30.5549 C 53.2388 29.2148 53.666 25.842 49.4524 23.0275 C 47.6198 24.4532 48.5855 26.819 50.0203 28.7116 C 50.1408 28.8705 50.0439 29.2843 49.8749 29.2156 C 48.8916 28.8165 48.4935 30.1456 49.027 31.6605 C 48.184 31.9401 47.8777 33.1586 48.4138 33.078 C 53.0229 32.3849 47.7894 38.6148 51.7659 45.1745 C 51.8734 45.3519 51.5808 45.6117 51.4259 45.5687 C 48.6533 44.8 47.8765 46.8562 48.2016 47.7082 C 48.6562 48.8994 49.8806 48.5108 50.0024 47.7854 C 50.2696 46.1941 51.4305 45.8231 52.2128 46.5933 C 56.834 51.3813 60.2516 56.37 71.4575 52.2049 Z"/><g><path d="M 63.7211 43.9635 L 66.3982 38.8685 L 61.0439 38.8685 Z"/><path d="M 66.3981 49.0585 L 69.0752 43.9634 L 63.7209 43.9634 Z"/><path d="M 69.0751 43.9635 L 71.7522 38.8685 L 66.3979 38.8685 Z"/><path d="M 71.7521 38.8685 L 74.4292 33.7735 L 69.0749 33.7735 Z"/><path d="M 61.0441 38.8685 L 63.7212 33.7735 L 58.3669 33.7735 Z"/><path d="M 66.3981 38.8685 L 69.0752 33.7735 L 63.7209 33.7735 Z"/></g><g><path d="M 53.3068 22.7275 L 54.9742 19.5542 L 51.6394 19.5542 Z"/><path d="M 54.9738 25.9008 L 56.6412 22.7275 L 53.3064 22.7275 Z"/><path d="M 56.6418 22.7275 L 58.3092 19.5542 L 54.9744 19.5542 Z"/><path d="M 58.3088 19.5541 L 59.9762 16.3808 L 56.6414 16.3808 Z"/><path d="M 51.6388 19.5541 L 53.3062 16.3808 L 49.9714 16.3808 Z"/><path d="M 54.9738 19.5541 L 56.6412 16.3808 L 53.3064 16.3808 Z"/></g></g></g></g></svg>